<svg width="96" height="64" viewBox="0 0 96 64" fill="none" xmlns="http://www.w3.org/2000/svg">
<g filter="url(#filter0_d_15_64)">
<path d="M3 30C3 15.0883 15.0883 3 30 3H84C86.7614 3 89 5.23858 89 8V27C89 43.5685 75.5685 57 59 57H30C15.0883 57 3 44.9117 3 30Z" fill="#FC6B2D" shape-rendering="crispEdges"/>
<g clip-path="url(#clip0_15_64)">
<path d="M29.1754 32.7267C29.544 31.8928 29.7487 30.9703 29.7487 30C29.7487 26.2721 26.7269 23.25 22.9994 23.25C19.2718 23.25 16.25 26.2721 16.25 30C16.25 33.7279 19.2718 36.75 22.9994 36.75C24.1995 36.75 25.3264 36.4367 26.303 35.8875L29.75 36.7494L29.1754 32.7267Z" stroke="#FEFEFE" stroke-width="3" stroke-linecap="round" stroke-linejoin="round"/>
</g>
<path d="M39.204 37.154C38.1333 37.154 37.1947 36.9193 36.388 36.45C35.5813 35.9807 34.9507 35.328 34.496 34.492C34.0413 33.6413 33.814 32.6587 33.814 31.544C33.814 30.4147 34.0413 29.4247 34.496 28.574C34.9507 27.7233 35.5887 27.056 36.41 26.572C37.2313 26.088 38.1773 25.846 39.248 25.846C40.4067 25.846 41.4333 26.132 42.328 26.704C43.2373 27.276 43.8753 28.046 44.242 29.014L41.624 29.762C41.448 29.3367 41.1547 28.9993 40.744 28.75C40.348 28.5007 39.8933 28.376 39.38 28.376C38.8667 28.376 38.412 28.508 38.016 28.772C37.6347 29.036 37.334 29.4027 37.114 29.872C36.9087 30.3413 36.806 30.8913 36.806 31.522C36.806 32.4753 37.0407 33.2307 37.51 33.788C37.9793 34.3453 38.61 34.624 39.402 34.624C39.9007 34.624 40.3553 34.5067 40.766 34.272C41.1767 34.0227 41.4847 33.6853 41.69 33.26L44.286 34.008C43.89 34.9613 43.23 35.724 42.306 36.296C41.3967 36.868 40.3627 37.154 39.204 37.154ZM46.4382 21.16H49.2542V27.078C49.5916 26.7113 50.0096 26.418 50.5082 26.198C51.0216 25.9633 51.5936 25.846 52.2242 25.846C53.0602 25.846 53.7862 26.0293 54.4022 26.396C55.0329 26.7627 55.5169 27.298 55.8542 28.002C56.1916 28.6913 56.3602 29.5493 56.3602 30.576V37H53.3902V30.95C53.3902 30.0993 53.2216 29.4613 52.8842 29.036C52.5469 28.6107 52.0409 28.398 51.3662 28.398C50.6769 28.398 50.1489 28.6327 49.7822 29.102C49.4302 29.5567 49.2542 30.2093 49.2542 31.06V37H46.4382V21.16ZM65.3886 37L65.1686 35.658C64.802 36.1127 64.384 36.472 63.9146 36.736C63.46 37 62.844 37.132 62.0666 37.132C61.3333 37.132 60.688 37.0073 60.1306 36.758C59.588 36.494 59.1626 36.1347 58.8546 35.68C58.5466 35.2107 58.3926 34.6607 58.3926 34.03C58.3926 33.106 58.7226 32.3433 59.3826 31.742C60.0573 31.126 61.0693 30.7373 62.4186 30.576L65.1686 30.268V29.498C65.1686 29.19 65.0293 28.904 64.7506 28.64C64.472 28.376 64.032 28.244 63.4306 28.244C62.9026 28.244 62.4406 28.376 62.0446 28.64C61.6633 28.8893 61.4066 29.2707 61.2746 29.784L58.8546 28.904C59.148 27.9213 59.7053 27.166 60.5266 26.638C61.348 26.11 62.36 25.846 63.5626 25.846C65.0293 25.846 66.1293 26.2127 66.8626 26.946C67.6106 27.6647 67.9846 28.618 67.9846 29.806V37H65.3886ZM65.1686 32.226L62.7926 32.534C62.3086 32.5927 61.942 32.7393 61.6926 32.974C61.4433 33.194 61.3186 33.4653 61.3186 33.788C61.3186 34.096 61.4433 34.36 61.6926 34.58C61.942 34.7853 62.294 34.888 62.7486 34.888C63.262 34.888 63.6946 34.7927 64.0466 34.602C64.4133 34.4113 64.692 34.1327 64.8826 33.766C65.0733 33.3993 65.1686 32.9447 65.1686 32.402V32.226ZM71.3572 26V22.92H74.2172V26H76.6372V28.486H74.2172V32.952C74.2172 33.524 74.3345 33.9273 74.5692 34.162C74.8185 34.3967 75.1265 34.5213 75.4932 34.536C75.8745 34.5507 76.2558 34.5287 76.6372 34.47V36.89C75.9625 37.0367 75.3025 37.0807 74.6572 37.022C74.0265 36.9633 73.4618 36.7947 72.9632 36.516C72.4645 36.2227 72.0685 35.7827 71.7752 35.196C71.4965 34.6093 71.3572 33.8613 71.3572 32.952V28.486H69.7952V26H71.3572Z" fill="#FEFEFE"/>
</g>
<defs>
<filter id="filter0_d_15_64" x="0" y="0" width="96" height="64" filterUnits="userSpaceOnUse" color-interpolation-filters="sRGB">
<feFlood flood-opacity="0" result="BackgroundImageFix"/>
<feColorMatrix in="SourceAlpha" type="matrix" values="0 0 0 0 0 0 0 0 0 0 0 0 0 0 0 0 0 0 127 0" result="hardAlpha"/>
<feOffset dx="2" dy="2"/>
<feGaussianBlur stdDeviation="2.5"/>
<feComposite in2="hardAlpha" operator="out"/>
<feColorMatrix type="matrix" values="0 0 0 0 0 0 0 0 0 0 0 0 0 0 0 0 0 0 0.25 0"/>
<feBlend mode="normal" in2="BackgroundImageFix" result="effect1_dropShadow_15_64"/>
<feBlend mode="normal" in="SourceGraphic" in2="effect1_dropShadow_15_64" result="shape"/>
</filter>
<clipPath id="clip0_15_64">
<rect width="18" height="18" fill="white" transform="translate(14 21)"/>
</clipPath>
</defs>
</svg>
