<svg width="96" height="64" viewBox="0 0 96 64" fill="none" xmlns="http://www.w3.org/2000/svg">
  <g filter="url(#filter0_d_15_64)">
    <path d="M3 30C3 15.0883 15.0883 3 30 3H84C86.7614 3 89 5.23858 89 8V27C89 43.5685 75.5685 57 59 57H30C15.0883 57 3 44.9117 3 30Z" fill="#FC6B2D" shape-rendering="crispEdges"/>
    <g transform="translate(38, 13) scale(2.0)">
      <path d="M10.1754 10.7267C10.544 9.8928 10.7487 8.9703 10.7487 8C10.7487 4.2721 7.7269 1.25 4 1.25C0.2724 1.25 -2.75 4.2721 -2.75 8C-2.75 11.7279 0.2724 14.75 4 14.75C5.1995 14.75 6.3264 14.4367 7.303 13.8875L10.75 14.7494L10.1754 10.7267Z" stroke="#FEFEFE" stroke-width="3" stroke-linecap="round" stroke-linejoin="round"/>
    </g>
  </g>
  <defs>
    <filter id="filter0_d_15_64" x="0" y="0" width="96" height="64" filterUnits="userSpaceOnUse" color-interpolation-filters="sRGB">
      <feFlood flood-opacity="0" result="BackgroundImageFix"/>
      <feColorMatrix in="SourceAlpha" type="matrix" values="0 0 0 0 0 0 0 0 0 0 0 0 0 0 0 0 0 0 127 0" result="hardAlpha"/>
      <feOffset dx="2" dy="2"/>
      <feGaussianBlur stdDeviation="2.5"/>
      <feComposite in2="hardAlpha" operator="out"/>
      <feColorMatrix type="matrix" values="0 0 0 0 0 0 0 0 0 0 0 0 0 0 0 0 0 0 0.25 0"/>
      <feBlend mode="normal" in2="BackgroundImageFix" result="effect1_dropShadow_15_64"/>
      <feBlend mode="normal" in="SourceGraphic" in2="effect1_dropShadow_15_64" result="shape"/>
    </filter>
  </defs>
</svg>
