<svg width="96" height="64" viewBox="0 0 96 64" fill="none" xmlns="http://www.w3.org/2000/svg">
<g filter="url(#filter0_d_15_64)">
<path d="M3 30C3 15.0883 15.0883 3 30 3H84C86.7614 3 89 5.23858 89 8V27C89 43.5685 75.5685 57 59 57H30C15.0883 57 3 44.9117 3 30V30Z" fill="#FC6B2D" shape-rendering="crispEdges"/>
<path d="M29.1754 32.7267C29.544 31.8928 29.7487 30.9703 29.7487 30C29.7487 26.2721 26.7269 23.25 22.9994 23.25C19.2718 23.25 16.25 26.2721 16.25 30C16.25 33.7279 19.2718 36.75 22.9994 36.75C24.1995 36.75 25.3264 36.4367 26.303 35.8875L29.75 36.7494L29.1754 32.7267Z" stroke="#FEFEFE" stroke-width="2" stroke-linecap="round" stroke-linejoin="round"/>
<path d="M39.292 37.154C38.236 37.154 37.3047 36.9193 36.498 36.45C35.6913 35.966 35.0607 35.306 34.606 34.47C34.166 33.634 33.946 32.6587 33.946 31.544C33.946 30.4147 34.1733 29.4247 34.628 28.574C35.0827 27.7233 35.7133 27.056 36.52 26.572C37.3267 26.088 38.2653 25.846 39.336 25.846C40.4653 25.846 41.4553 26.11 42.306 26.638C43.1713 27.166 43.7947 27.8773 44.176 28.772L42.306 29.432C42.086 28.9187 41.712 28.508 41.184 28.2C40.6707 27.892 40.084 27.738 39.424 27.738C38.7493 27.738 38.17 27.8993 37.686 28.222C37.202 28.53 36.828 28.97 36.564 29.542C36.3 30.0993 36.168 30.7593 36.168 31.522C36.168 32.666 36.4613 33.5753 37.048 34.25C37.6347 34.9247 38.4267 35.262 39.424 35.262C40.084 35.262 40.6707 35.1153 41.184 34.822C41.712 34.5287 42.108 34.1253 42.372 33.612L44.22 34.272C43.8093 35.152 43.164 35.856 42.284 36.384C41.404 36.8973 40.4067 37.154 39.292 37.154ZM46.7442 21.16H48.8122V27.21C49.1642 26.7847 49.6188 26.4547 50.1762 26.22C50.7335 25.9707 51.3495 25.846 52.0242 25.846C52.8455 25.846 53.5642 26.0293 54.1802 26.396C54.8108 26.748 55.3022 27.2833 55.6542 28.002C56.0062 28.706 56.1822 29.586 56.1822 30.642V37H54.0042V30.906C54.0042 29.8793 53.7915 29.0947 53.3662 28.552C52.9408 28.0093 52.3175 27.738 51.4962 27.738C50.6455 27.738 49.9855 28.0167 49.5162 28.574C49.0468 29.1313 48.8122 29.9453 48.8122 31.016V37H46.7442V21.16ZM65.8936 37L65.7176 35.394C65.3803 35.9513 64.9403 36.384 64.3976 36.692C63.8696 36.9853 63.1803 37.132 62.3296 37.132C61.5376 37.132 60.8629 37.0073 60.3056 36.758C59.7483 36.494 59.3156 36.1347 59.0076 35.68C58.7143 35.2107 58.5676 34.668 58.5676 34.052C58.5676 33.128 58.9123 32.3653 59.6016 31.764C60.2909 31.148 61.2883 30.7667 62.5936 30.62L65.7176 30.268V29.41C65.7176 28.9407 65.5269 28.5447 65.1456 28.222C64.7643 27.8847 64.2143 27.716 63.4956 27.716C62.8209 27.716 62.2489 27.8773 61.7796 28.2C61.3103 28.508 60.9949 28.97 60.8336 29.586L58.9856 28.926C59.2643 27.958 59.8069 27.2027 60.6136 26.66C61.4349 26.1173 62.4249 25.846 63.5836 25.846C64.9623 25.846 66.0109 26.1907 66.7296 26.88C67.4483 27.5693 67.8076 28.4787 67.8076 29.608V37H65.8936ZM65.7176 31.962L62.7036 32.336C62.0583 32.424 61.5743 32.6073 61.2516 32.886C60.9289 33.15 60.7676 33.502 60.7676 33.942C60.7676 34.3527 60.9216 34.6973 61.2296 34.976C61.5523 35.24 61.9996 35.372 62.5716 35.372C63.2756 35.372 63.8623 35.24 64.3316 34.976C64.8009 34.712 65.1456 34.3453 65.3656 33.876C65.6003 33.392 65.7176 32.8347 65.7176 32.204V31.962ZM71.4892 26V22.92H73.5792V26H76.3292V27.848H73.5792V33.26C73.5792 33.9347 73.7112 34.4113 73.9752 34.69C74.2538 34.9687 74.5985 35.13 75.0092 35.174C75.4345 35.2033 75.8745 35.1887 76.3292 35.13V36.912C75.7278 37.044 75.1338 37.0807 74.5472 37.022C73.9752 36.978 73.4545 36.8167 72.9852 36.538C72.5305 36.2593 72.1638 35.856 71.8852 35.328C71.6212 34.7853 71.4892 34.096 71.4892 33.26V27.848H69.9052V26H71.4892Z" fill="#FEFEFE"/>
</g>
<defs>
<filter id="filter0_d_15_64" x="0" y="0" width="96" height="64" filterUnits="userSpaceOnUse" color-interpolation-filters="sRGB">
<feFlood flood-opacity="0" result="BackgroundImageFix"/>
<feColorMatrix in="SourceAlpha" type="matrix" values="0 0 0 0 0 0 0 0 0 0 0 0 0 0 0 0 0 0 127 0" result="hardAlpha"/>
<feOffset dx="2" dy="2"/>
<feGaussianBlur stdDeviation="2.5"/>
<feComposite in2="hardAlpha" operator="out"/>
<feColorMatrix type="matrix" values="0 0 0 0 0 0 0 0 0 0 0 0 0 0 0 0 0 0 0.25 0"/>
<feBlend mode="normal" in2="BackgroundImageFix" result="effect1_dropShadow_15_64"/>
<feBlend mode="normal" in="SourceGraphic" in2="effect1_dropShadow_15_64" result="shape"/>
</filter>
</defs>
</svg>
