<svg width="55" height="54" viewBox="0 0 55 54" fill="none" xmlns="http://www.w3.org/2000/svg">
<path d="M0 27C0 12.0883 12.0883 0 27 0H50C52.7614 0 55 2.23858 55 5V33.375C55 44.7659 45.7659 54 34.375 54H27C12.0883 54 0 41.9117 0 27Z" fill="#FC6B2D"/>
<path d="M35.7338 30.6356C36.2253 29.5238 36.4983 28.2938 36.4983 27C36.4983 22.0294 32.4692 18 27.4991 18C22.5291 18 18.5 22.0294 18.5 27C18.5 31.9706 22.5291 36 27.4991 36C29.0993 36 30.6019 35.5823 31.9039 34.85L36.5 35.9991L35.7338 30.6356Z" stroke="white" stroke-width="2.7" stroke-linecap="round" stroke-linejoin="round"/>
</svg>
